<svg xmlns="http://www.w3.org/2000/svg" aria-hidden="true" overflow="hidden" style="position:absolute;width:0;height:0">
  <defs>
    
    
    <symbol id="icon-Arrow" viewBox="0 0 32 32">
      <path d="m12.586 27.414-10-10a2 2 0 0 1 0-2.828l10-10a2 2 0 1 1 2.828 2.828L8.828 14H28a2 2 0 1 1 0 4H8.828l6.586 6.586c.39.39.586.902.586 1.414s-.195 1.024-.586 1.414a2 2 0 0 1-2.828 0z"/>
    </symbol>
    <symbol id="icon-burger" viewBox="0 0 46 32">
      <path d="M45.714 29.726c0 1.257-1.019 2.274-2.274 2.274h-18.309c-0.603 0-1.182-0.24-1.608-0.666s-0.666-1.005-0.666-1.608c0-0.603 0.24-1.182 0.666-1.608s1.005-0.666 1.608-0.666h18.309c1.257 0 2.274 1.017 2.274 2.274zM45.714 16c0 1.257-1.019 2.274-2.274 2.274h-41.166c-0.603 0-1.182-0.24-1.608-0.666s-0.666-1.005-0.666-1.608c0-0.603 0.24-1.182 0.666-1.608s1.005-0.666 1.608-0.666h41.166c1.257 0 2.274 1.019 2.274 2.274zM43.44 4.549c0.603 0 1.182-0.24 1.608-0.666s0.666-1.005 0.666-1.608c0-0.603-0.24-1.182-0.666-1.608s-1.005-0.666-1.608-0.666h-27.451c-0.299 0-0.594 0.059-0.87 0.173s-0.527 0.282-0.738 0.493c-0.211 0.211-0.379 0.462-0.493 0.738s-0.173 0.572-0.173 0.87c0 0.299 0.059 0.594 0.173 0.87s0.282 0.527 0.493 0.738c0.211 0.211 0.462 0.379 0.738 0.493s0.572 0.173 0.87 0.173h27.451z"></path>
    </symbol>
  </defs>
</svg>
